<svg xmlns="http://www.w3.org/2000/svg" xmlns:xlink="http://www.w3.org/1999/xlink" width="500" zoomAndPan="magnify" viewBox="0 0 375 374.999991" height="500" preserveAspectRatio="xMidYMid meet" version="1.0"><defs><g/><clipPath id="0f9e19ff39"><path d="M 24 116 L 353 116 L 353 308 L 24 308 Z M 24 116 " clip-rule="nonzero"/></clipPath><clipPath id="928bb1a0b1"><path d="M 77.421875 29.746094 L 374.816406 144.457031 L 297.351562 345.285156 L -0.0390625 230.574219 Z M 77.421875 29.746094 " clip-rule="nonzero"/></clipPath><clipPath id="3d52e7fc7c"><path d="M 77.421875 29.746094 L 374.816406 144.457031 L 297.351562 345.285156 L -0.0390625 230.574219 Z M 77.421875 29.746094 " clip-rule="nonzero"/></clipPath><clipPath id="bade2b2db3"><path d="M 350.210938 190.3125 C 357.613281 165.15625 344.96875 137.953125 321.085938 127.25 C 302.648438 118.921875 282.242188 122.011719 267.375 133.191406 C 259.964844 138.722656 249.710938 138.285156 242.511719 132.394531 C 236.96875 127.824219 230.472656 123.964844 223.40625 121.238281 C 202.675781 113.242188 180.453125 115.765625 162.578125 126.328125 C 152.222656 132.480469 139.367188 132.125 128.976562 126.085938 C 124.464844 123.398438 119.492188 121.210938 114.289062 119.609375 C 80.5625 109.171875 44.007812 126.058594 29.917969 158.378906 C 13.867188 195.082031 31.808594 237.320312 68.796875 251.589844 C 84.109375 257.496094 100.171875 257.601562 114.605469 253.15625 C 129.203125 248.636719 144.804688 255.195312 151.726562 268.828125 C 159.824219 284.671875 173.933594 297.554688 192.4375 303.609375 C 226.453125 314.699219 263.96875 297.777344 278.125 264.941406 C 279.742188 261.101562 281.03125 257.402344 282.015625 253.453125 C 285.226562 240.210938 295.605469 230.144531 309.035156 227.609375 C 327.816406 224.164062 344.320312 210.503906 350.210938 190.3125 Z M 350.210938 190.3125 " clip-rule="nonzero"/></clipPath><clipPath id="101fef998b"><path d="M 123 91 L 154 91 L 154 122 L 123 122 Z M 123 91 " clip-rule="nonzero"/></clipPath><clipPath id="7beea3678a"><path d="M 77.421875 29.746094 L 374.816406 144.457031 L 297.351562 345.285156 L -0.0390625 230.574219 Z M 77.421875 29.746094 " clip-rule="nonzero"/></clipPath><clipPath id="f800423e97"><path d="M 77.421875 29.746094 L 374.816406 144.457031 L 297.351562 345.285156 L -0.0390625 230.574219 Z M 77.421875 29.746094 " clip-rule="nonzero"/></clipPath><clipPath id="a12ec06dc1"><path d="M 152.222656 111.777344 C 151.867188 112.699219 151.425781 113.574219 150.898438 114.410156 C 150.371094 115.242188 149.765625 116.015625 149.085938 116.730469 C 148.40625 117.445312 147.664062 118.085938 146.855469 118.65625 C 146.050781 119.222656 145.195312 119.707031 144.292969 120.105469 C 143.390625 120.507812 142.460938 120.8125 141.496094 121.03125 C 140.535156 121.246094 139.5625 121.367188 138.574219 121.390625 C 137.589844 121.414062 136.609375 121.34375 135.636719 121.175781 C 134.664062 121.003906 133.71875 120.742188 132.800781 120.390625 C 131.878906 120.035156 131 119.59375 130.167969 119.066406 C 129.335938 118.535156 128.5625 117.933594 127.847656 117.253906 C 127.132812 116.574219 126.492188 115.828125 125.921875 115.023438 C 125.355469 114.214844 124.871094 113.363281 124.472656 112.460938 C 124.070312 111.558594 123.761719 110.625 123.546875 109.664062 C 123.332031 108.699219 123.210938 107.726562 123.1875 106.742188 C 123.164062 105.753906 123.234375 104.773438 123.402344 103.804688 C 123.570312 102.832031 123.832031 101.886719 124.1875 100.964844 C 124.542969 100.042969 124.984375 99.167969 125.511719 98.335938 C 126.039062 97.5 126.644531 96.726562 127.324219 96.011719 C 128.003906 95.296875 128.75 94.65625 129.554688 94.089844 C 130.359375 93.519531 131.214844 93.035156 132.117188 92.636719 C 133.019531 92.238281 133.953125 91.929688 134.914062 91.710938 C 135.875 91.496094 136.851562 91.375 137.835938 91.351562 C 138.824219 91.328125 139.800781 91.398438 140.773438 91.570312 C 141.746094 91.738281 142.691406 92 143.613281 92.355469 C 144.53125 92.710938 145.410156 93.152344 146.242188 93.679688 C 147.078125 94.207031 147.851562 94.808594 148.566406 95.492188 C 149.28125 96.171875 149.921875 96.914062 150.488281 97.71875 C 151.058594 98.527344 151.539062 99.382812 151.941406 100.28125 C 152.339844 101.183594 152.648438 102.117188 152.863281 103.078125 C 153.082031 104.042969 153.199219 105.015625 153.226562 106.003906 C 153.25 106.988281 153.175781 107.96875 153.007812 108.941406 C 152.839844 109.910156 152.578125 110.859375 152.222656 111.777344 Z M 152.222656 111.777344 " clip-rule="nonzero"/></clipPath><clipPath id="8dce0f9189"><path d="M 220 88 L 239 88 L 239 107 L 220 107 Z M 220 88 " clip-rule="nonzero"/></clipPath><clipPath id="fa008ecd67"><path d="M 77.421875 29.746094 L 374.816406 144.457031 L 297.351562 345.285156 L -0.0390625 230.574219 Z M 77.421875 29.746094 " clip-rule="nonzero"/></clipPath><clipPath id="02aa9787b7"><path d="M 77.421875 29.746094 L 374.816406 144.457031 L 297.351562 345.285156 L -0.0390625 230.574219 Z M 77.421875 29.746094 " clip-rule="nonzero"/></clipPath><clipPath id="ca82d15e30"><path d="M 237.648438 101.15625 C 237.433594 101.703125 237.171875 102.226562 236.855469 102.726562 C 236.542969 103.222656 236.179688 103.683594 235.777344 104.109375 C 235.371094 104.535156 234.925781 104.917969 234.445312 105.257812 C 233.964844 105.597656 233.453125 105.886719 232.917969 106.125 C 232.378906 106.363281 231.820312 106.546875 231.246094 106.675781 C 230.671875 106.804688 230.09375 106.875 229.503906 106.890625 C 228.914062 106.90625 228.332031 106.863281 227.75 106.761719 C 227.171875 106.660156 226.605469 106.503906 226.058594 106.292969 C 225.507812 106.082031 224.984375 105.816406 224.488281 105.503906 C 223.992188 105.1875 223.527344 104.828125 223.101562 104.421875 C 222.675781 104.015625 222.292969 103.574219 221.953125 103.089844 C 221.617188 102.609375 221.328125 102.101562 221.089844 101.5625 C 220.851562 101.023438 220.667969 100.46875 220.539062 99.894531 C 220.410156 99.320312 220.335938 98.738281 220.324219 98.148438 C 220.308594 97.5625 220.351562 96.976562 220.453125 96.398438 C 220.550781 95.816406 220.707031 95.253906 220.921875 94.703125 C 221.132812 94.15625 221.394531 93.632812 221.710938 93.132812 C 222.023438 92.636719 222.386719 92.175781 222.792969 91.75 C 223.195312 91.324219 223.640625 90.941406 224.121094 90.601562 C 224.601562 90.261719 225.113281 89.972656 225.652344 89.734375 C 226.1875 89.496094 226.746094 89.3125 227.320312 89.183594 C 227.894531 89.054688 228.476562 88.984375 229.0625 88.96875 C 229.652344 88.953125 230.234375 88.996094 230.816406 89.097656 C 231.394531 89.199219 231.960938 89.355469 232.507812 89.566406 C 233.058594 89.777344 233.582031 90.042969 234.078125 90.355469 C 234.578125 90.671875 235.039062 91.03125 235.464844 91.4375 C 235.890625 91.84375 236.273438 92.285156 236.613281 92.769531 C 236.949219 93.25 237.238281 93.757812 237.476562 94.296875 C 237.714844 94.835938 237.902344 95.390625 238.03125 95.964844 C 238.160156 96.539062 238.230469 97.121094 238.246094 97.710938 C 238.257812 98.296875 238.214844 98.882812 238.117188 99.460938 C 238.015625 100.042969 237.859375 100.605469 237.648438 101.15625 Z M 237.648438 101.15625 " clip-rule="nonzero"/></clipPath><clipPath id="9f8c0e57f6"><path d="M 300 246 L 329 246 L 329 276 L 300 276 Z M 300 246 " clip-rule="nonzero"/></clipPath><clipPath id="18892f52d2"><path d="M 77.421875 29.746094 L 374.816406 144.457031 L 297.351562 345.285156 L -0.0390625 230.574219 Z M 77.421875 29.746094 " clip-rule="nonzero"/></clipPath><clipPath id="ef180d967d"><path d="M 77.421875 29.746094 L 374.816406 144.457031 L 297.351562 345.285156 L -0.0390625 230.574219 Z M 77.421875 29.746094 " clip-rule="nonzero"/></clipPath><clipPath id="67811bfb8f"><path d="M 327.867188 266.132812 C 327.535156 267 327.117188 267.824219 326.621094 268.609375 C 326.125 269.394531 325.558594 270.121094 324.917969 270.792969 C 324.277344 271.464844 323.578125 272.070312 322.816406 272.605469 C 322.058594 273.140625 321.253906 273.59375 320.40625 273.96875 C 319.558594 274.347656 318.679688 274.636719 317.773438 274.839844 C 316.867188 275.042969 315.949219 275.15625 315.023438 275.179688 C 314.09375 275.203125 313.171875 275.132812 312.257812 274.976562 C 311.34375 274.816406 310.453125 274.570312 309.585938 274.238281 C 308.71875 273.902344 307.894531 273.488281 307.109375 272.988281 C 306.328125 272.492188 305.597656 271.925781 304.925781 271.285156 C 304.253906 270.644531 303.648438 269.945312 303.113281 269.1875 C 302.582031 268.425781 302.125 267.621094 301.75 266.773438 C 301.371094 265.925781 301.082031 265.046875 300.878906 264.140625 C 300.675781 263.234375 300.5625 262.320312 300.539062 261.390625 C 300.515625 260.460938 300.585938 259.542969 300.742188 258.625 C 300.902344 257.710938 301.148438 256.820312 301.484375 255.953125 C 301.816406 255.089844 302.230469 254.261719 302.730469 253.480469 C 303.226562 252.695312 303.792969 251.964844 304.433594 251.292969 C 305.074219 250.621094 305.773438 250.015625 306.53125 249.484375 C 307.292969 248.949219 308.097656 248.492188 308.945312 248.117188 C 309.792969 247.742188 310.671875 247.449219 311.578125 247.246094 C 312.484375 247.042969 313.398438 246.929688 314.328125 246.90625 C 315.257812 246.886719 316.179688 246.953125 317.09375 247.113281 C 318.007812 247.269531 318.898438 247.515625 319.765625 247.851562 C 320.628906 248.183594 321.457031 248.601562 322.238281 249.097656 C 323.023438 249.59375 323.753906 250.164062 324.425781 250.800781 C 325.097656 251.441406 325.703125 252.140625 326.234375 252.902344 C 326.769531 253.660156 327.226562 254.464844 327.601562 255.3125 C 327.980469 256.160156 328.269531 257.039062 328.472656 257.945312 C 328.675781 258.851562 328.789062 259.769531 328.8125 260.695312 C 328.835938 261.625 328.765625 262.546875 328.609375 263.460938 C 328.449219 264.375 328.203125 265.265625 327.867188 266.132812 Z M 327.867188 266.132812 " clip-rule="nonzero"/></clipPath><clipPath id="0a4cf70868"><rect x="0" width="39" y="0" height="30"/></clipPath></defs><g clip-path="url(#0f9e19ff39)"><g clip-path="url(#928bb1a0b1)"><g clip-path="url(#3d52e7fc7c)"><g clip-path="url(#bade2b2db3)"><path fill="#fcfdf2" d="M 58.386719 -6.25 L -55.144531 288.082031 L 313.09375 430.121094 L 426.625 135.789062 Z M 58.386719 -6.25 " fill-opacity="1" fill-rule="nonzero"/></g></g></g></g><g clip-path="url(#101fef998b)"><g clip-path="url(#7beea3678a)"><g clip-path="url(#f800423e97)"><g clip-path="url(#a12ec06dc1)"><path fill="#fcfdf2" d="M 127.058594 81.226562 L 113.058594 117.519531 L 149.351562 131.515625 L 163.351562 95.226562 Z M 127.058594 81.226562 " fill-opacity="1" fill-rule="nonzero"/></g></g></g></g><g clip-path="url(#8dce0f9189)"><g clip-path="url(#fa008ecd67)"><g clip-path="url(#02aa9787b7)"><g clip-path="url(#ca82d15e30)"><path fill="#fcfdf2" d="M 222.632812 82.925781 L 214.28125 104.582031 L 235.933594 112.933594 L 244.285156 91.277344 Z M 222.632812 82.925781 " fill-opacity="1" fill-rule="nonzero"/></g></g></g></g><g clip-path="url(#9f8c0e57f6)"><g clip-path="url(#18892f52d2)"><g clip-path="url(#ef180d967d)"><g clip-path="url(#67811bfb8f)"><path fill="#fcfdf2" d="M 304.183594 237.375 L 291.007812 271.535156 L 325.167969 284.710938 L 338.34375 250.550781 Z M 304.183594 237.375 " fill-opacity="1" fill-rule="nonzero"/></g></g></g></g><g fill="#8fccea" fill-opacity="1"><g transform="translate(51.531399, 234.047775)"><g><path d="M 10.5 -5.765625 C 7.96875 -4.378906 5.742188 -3.691406 3.828125 -3.703125 C 1.910156 -3.722656 0.300781 -4.242188 -1 -5.265625 C -2.300781 -6.296875 -3.300781 -7.625 -4 -9.25 C -4.8125 -11.1875 -5.570312 -13.382812 -6.28125 -15.84375 C -6.988281 -18.3125 -7.707031 -20.828125 -8.4375 -23.390625 C -9.175781 -25.960938 -10.03125 -28.367188 -11 -30.609375 C -11.507812 -31.753906 -12.28125 -33.207031 -13.3125 -34.96875 C -14.34375 -36.726562 -15.46875 -38.664062 -16.6875 -40.78125 C -17.90625 -42.894531 -18.992188 -45.054688 -19.953125 -47.265625 C -20.921875 -49.484375 -21.59375 -51.640625 -21.96875 -53.734375 C -22.34375 -55.828125 -22.210938 -57.738281 -21.578125 -59.46875 C -20.953125 -61.207031 -19.644531 -62.625 -17.65625 -63.71875 C -16.320312 -64.457031 -14.847656 -64.59375 -13.234375 -64.125 C -11.617188 -63.65625 -9.992188 -62.878906 -8.359375 -61.796875 C -6.734375 -60.722656 -5.1875 -59.582031 -3.71875 -58.375 C -2.25 -57.175781 -0.992188 -56.1875 0.046875 -55.40625 C 1.097656 -54.625 1.796875 -54.332031 2.140625 -54.53125 C 2.492188 -54.71875 2.539062 -55.421875 2.28125 -56.640625 C 2.03125 -57.859375 1.71875 -59.367188 1.34375 -61.171875 C 0.96875 -62.972656 0.722656 -64.828125 0.609375 -66.734375 C 0.503906 -68.648438 0.757812 -70.457031 1.375 -72.15625 C 1.988281 -73.851562 3.191406 -75.191406 4.984375 -76.171875 C 7.015625 -77.285156 8.9375 -77.628906 10.75 -77.203125 C 12.570312 -76.773438 14.257812 -75.859375 15.8125 -74.453125 C 17.363281 -73.046875 18.78125 -71.347656 20.0625 -69.359375 C 21.34375 -67.378906 22.484375 -65.390625 23.484375 -63.390625 C 24.484375 -61.390625 25.335938 -59.597656 26.046875 -58.015625 C 26.765625 -56.429688 27.328125 -55.332031 27.734375 -54.71875 C 29.117188 -52.5625 30.503906 -50.863281 31.890625 -49.625 C 33.273438 -48.382812 34.703125 -47.28125 36.171875 -46.3125 C 37.648438 -45.34375 39.148438 -44.210938 40.671875 -42.921875 C 42.191406 -41.628906 43.734375 -39.859375 45.296875 -37.609375 C 45.617188 -37.140625 46 -36.328125 46.4375 -35.171875 C 46.875 -34.023438 47.082031 -32.703125 47.0625 -31.203125 C 47.039062 -29.703125 46.515625 -28.148438 45.484375 -26.546875 C 44.460938 -24.953125 42.660156 -23.445312 40.078125 -22.03125 C 36.648438 -20.144531 33.894531 -19.179688 31.8125 -19.140625 C 29.738281 -19.097656 28.09375 -19.617188 26.875 -20.703125 C 25.664062 -21.785156 24.609375 -23.046875 23.703125 -24.484375 C 22.734375 -26.015625 21.851562 -27.988281 21.0625 -30.40625 C 20.28125 -32.820312 19.554688 -35.429688 18.890625 -38.234375 C 18.222656 -41.035156 17.625 -43.828125 17.09375 -46.609375 C 16.570312 -49.390625 16.070312 -51.921875 15.59375 -54.203125 C 15.113281 -56.492188 14.648438 -58.34375 14.203125 -59.75 C 13.753906 -61.15625 13.300781 -61.863281 12.84375 -61.875 C 12.59375 -61.851562 12.4375 -61.828125 12.375 -61.796875 C 11.832031 -61.503906 11.617188 -60.628906 11.734375 -59.171875 C 11.859375 -57.722656 12.128906 -55.976562 12.546875 -53.9375 C 12.960938 -51.894531 13.296875 -49.8125 13.546875 -47.6875 C 13.804688 -45.570312 13.804688 -43.6875 13.546875 -42.03125 C 13.296875 -40.375 12.578125 -39.222656 11.390625 -38.578125 C 10.003906 -37.804688 8.492188 -37.726562 6.859375 -38.34375 C 5.222656 -38.957031 3.582031 -39.929688 1.9375 -41.265625 C 0.300781 -42.609375 -1.253906 -43.984375 -2.734375 -45.390625 C -4.222656 -46.796875 -5.5625 -47.929688 -6.75 -48.796875 C -7.945312 -49.671875 -8.890625 -49.921875 -9.578125 -49.546875 C -9.628906 -49.515625 -9.664062 -49.492188 -9.6875 -49.484375 C -9.71875 -49.472656 -9.753906 -49.453125 -9.796875 -49.421875 C -10.515625 -48.828125 -10.316406 -47.960938 -9.203125 -46.828125 C -8.097656 -45.691406 -6.441406 -44.351562 -4.234375 -42.8125 C -2.023438 -41.28125 0.4375 -39.566406 3.15625 -37.671875 C 5.882812 -35.773438 8.5 -33.75 11 -31.59375 C 13.5 -29.445312 15.613281 -27.21875 17.34375 -24.90625 C 19.070312 -22.59375 20.054688 -20.207031 20.296875 -17.75 C 20.484375 -15.789062 20.117188 -14.085938 19.203125 -12.640625 C 18.285156 -11.191406 17.050781 -9.929688 15.5 -8.859375 C 13.957031 -7.785156 12.289062 -6.753906 10.5 -5.765625 Z M 10.5 -5.765625 "/></g></g></g><g fill="#8fccea" fill-opacity="1"><g transform="translate(98.428443, 208.976762)"><g><path d="M -4.40625 -29.1875 C -5.5 -35.269531 -5.691406 -40.601562 -4.984375 -45.1875 C -4.273438 -49.769531 -2.78125 -53.457031 -0.5 -56.25 C 1.78125 -59.050781 4.765625 -60.785156 8.453125 -61.453125 C 11.347656 -61.972656 14.066406 -61.726562 16.609375 -60.71875 C 19.148438 -59.71875 21.445312 -58.148438 23.5 -56.015625 C 25.5625 -53.878906 27.375 -51.335938 28.9375 -48.390625 C 30.507812 -45.453125 31.734375 -42.332031 32.609375 -39.03125 C 33.640625 -35.25 34.191406 -31.390625 34.265625 -27.453125 C 34.335938 -23.523438 33.859375 -19.867188 32.828125 -16.484375 C 31.804688 -13.097656 30.148438 -10.234375 27.859375 -7.890625 C 25.566406 -5.554688 22.582031 -4.0625 18.90625 -3.40625 C 16.226562 -2.925781 13.632812 -3.335938 11.125 -4.640625 C 8.613281 -5.953125 6.296875 -7.867188 4.171875 -10.390625 C 2.046875 -12.910156 0.242188 -15.804688 -1.234375 -19.078125 C -2.722656 -22.347656 -3.78125 -25.71875 -4.40625 -29.1875 Z M 10.15625 -52.015625 C 9.207031 -51.835938 8.460938 -51.164062 7.921875 -50 C 7.390625 -48.832031 7.0625 -47.390625 6.9375 -45.671875 C 6.820312 -43.953125 6.898438 -42.15625 7.171875 -40.28125 C 7.453125 -38.40625 7.929688 -36.675781 8.609375 -35.09375 C 9.296875 -33.519531 10.195312 -32.300781 11.3125 -31.4375 C 12.425781 -30.570312 13.734375 -30.273438 15.234375 -30.546875 C 16.566406 -30.785156 17.488281 -31.484375 18 -32.640625 C 18.507812 -33.804688 18.726562 -35.226562 18.65625 -36.90625 C 18.582031 -38.59375 18.28125 -40.351562 17.75 -42.1875 C 17.226562 -44.019531 16.550781 -45.707031 15.71875 -47.25 C 14.894531 -48.800781 14 -50.023438 13.03125 -50.921875 C 12.0625 -51.816406 11.101562 -52.179688 10.15625 -52.015625 Z M 10.15625 -52.015625 "/></g></g></g><g fill="#8fccea" fill-opacity="1"><g transform="translate(133.52421, 202.320491)"><g><path d="M 21.015625 1.546875 C 17.117188 1.265625 13.972656 0.269531 11.578125 -1.4375 C 9.179688 -3.15625 7.332031 -5.253906 6.03125 -7.734375 C 4.726562 -10.222656 3.851562 -12.847656 3.40625 -15.609375 C 2.96875 -18.367188 2.75 -20.96875 2.75 -23.40625 C 2.757812 -25.84375 2.847656 -27.828125 3.015625 -29.359375 C 3.234375 -31.441406 3.75 -33.742188 4.5625 -36.265625 C 5.375 -38.796875 6.5 -41.328125 7.9375 -43.859375 C 9.375 -46.398438 11.175781 -48.695312 13.34375 -50.75 C 15.507812 -52.800781 18.050781 -54.398438 20.96875 -55.546875 C 23.894531 -56.703125 27.253906 -57.140625 31.046875 -56.859375 C 32.003906 -56.785156 33.019531 -56.507812 34.09375 -56.03125 C 35.164062 -55.550781 36.019531 -54.816406 36.65625 -53.828125 C 37.289062 -52.847656 37.382812 -51.554688 36.9375 -49.953125 C 36.457031 -48.160156 35.722656 -46.945312 34.734375 -46.3125 C 33.753906 -45.675781 32.703125 -45.398438 31.578125 -45.484375 C 31.347656 -45.503906 31.117188 -45.535156 30.890625 -45.578125 C 30.660156 -45.617188 30.441406 -45.679688 30.234375 -45.765625 C 29.515625 -45.984375 28.726562 -46.125 27.875 -46.1875 C 25.664062 -46.351562 23.582031 -45.910156 21.625 -44.859375 C 19.675781 -43.804688 18.101562 -42.269531 16.90625 -40.25 C 15.707031 -38.238281 15.066406 -35.84375 14.984375 -33.0625 C 14.835938 -29.613281 15.6875 -27.15625 17.53125 -25.6875 C 19.382812 -24.21875 22.421875 -23.1875 26.640625 -22.59375 C 30.128906 -22.101562 32.640625 -21.078125 34.171875 -19.515625 C 35.703125 -17.953125 36.546875 -16.082031 36.703125 -13.90625 C 36.859375 -11.738281 36.5625 -9.488281 35.8125 -7.15625 C 34.925781 -4.4375 33.195312 -2.234375 30.625 -0.546875 C 28.0625 1.140625 24.859375 1.835938 21.015625 1.546875 Z M 21.015625 1.546875 "/></g></g></g><g fill="#8fccea" fill-opacity="1"><g transform="translate(165.576432, 203.129688)"><g><path d="M 5.53125 -0.46875 C 4.144531 -2.613281 3.554688 -4.707031 3.765625 -6.75 C 3.984375 -8.789062 4.695312 -10.78125 5.90625 -12.71875 C 7.113281 -14.65625 8.546875 -16.554688 10.203125 -18.421875 C 11.859375 -20.285156 13.472656 -22.101562 15.046875 -23.875 C 16.617188 -25.644531 17.84375 -27.394531 18.71875 -29.125 C 19.46875 -30.65625 20 -32.40625 20.3125 -34.375 C 20.625 -36.351562 20.898438 -38.351562 21.140625 -40.375 C 21.378906 -42.40625 21.8125 -44.300781 22.4375 -46.0625 C 23.0625 -47.832031 24.066406 -49.273438 25.453125 -50.390625 C 26.128906 -50.921875 26.992188 -51.304688 28.046875 -51.546875 C 29.109375 -51.785156 30.25 -51.675781 31.46875 -51.21875 C 33.488281 -50.46875 34.710938 -49.316406 35.140625 -47.765625 C 35.566406 -46.222656 35.484375 -44.457031 34.890625 -42.46875 C 34.296875 -40.488281 33.488281 -38.40625 32.46875 -36.21875 C 31.445312 -34.03125 30.492188 -31.914062 29.609375 -29.875 C 30.035156 -30.207031 30.441406 -30.53125 30.828125 -30.84375 C 31.222656 -31.15625 31.578125 -31.492188 31.890625 -31.859375 C 32.546875 -32.648438 33.5 -33.710938 34.75 -35.046875 C 36.007812 -36.390625 37.414062 -37.769531 38.96875 -39.1875 C 40.519531 -40.613281 42.082031 -41.847656 43.65625 -42.890625 C 45.226562 -43.941406 46.664062 -44.523438 47.96875 -44.640625 C 48.269531 -44.648438 48.65625 -44.628906 49.125 -44.578125 C 49.59375 -44.523438 50.09375 -44.398438 50.625 -44.203125 C 51.257812 -43.960938 51.894531 -43.601562 52.53125 -43.125 C 53.175781 -42.644531 53.710938 -42.082031 54.140625 -41.4375 C 54.597656 -40.726562 54.828125 -39.8125 54.828125 -38.6875 C 54.828125 -37.570312 54.6875 -36.472656 54.40625 -35.390625 C 54.132812 -34.304688 53.710938 -33.488281 53.140625 -32.9375 C 51.640625 -31.3125 49.757812 -29.953125 47.5 -28.859375 C 45.25 -27.765625 43.019531 -26.6875 40.8125 -25.625 C 38.601562 -24.570312 36.78125 -23.253906 35.34375 -21.671875 C 36.46875 -21.429688 37.488281 -21.144531 38.40625 -20.8125 C 42.164062 -19.40625 44.6875 -16.84375 45.96875 -13.125 C 47.25 -9.414062 47.984375 -4.570312 48.171875 1.40625 C 48.203125 2.632812 48.21875 3.972656 48.21875 5.421875 C 48.226562 6.878906 48.109375 8.300781 47.859375 9.6875 C 47.617188 11.070312 47.140625 12.238281 46.421875 13.1875 C 45.703125 14.132812 44.648438 14.722656 43.265625 14.953125 C 41.878906 15.191406 40.019531 14.878906 37.6875 14.015625 L 33.0625 12.296875 C 31.15625 11.585938 29.863281 10.710938 29.1875 9.671875 C 28.507812 8.640625 28.25 7.472656 28.40625 6.171875 C 28.5625 4.867188 28.925781 3.472656 29.5 1.984375 C 30.082031 0.503906 30.660156 -1.003906 31.234375 -2.546875 C 31.804688 -4.078125 32.398438 -5.46875 33.015625 -6.71875 C 33.628906 -7.96875 34.019531 -9.101562 34.1875 -10.125 C 34.363281 -11.15625 34.113281 -12.097656 33.4375 -12.953125 C 32.757812 -13.816406 31.4375 -14.613281 29.46875 -15.34375 C 29.257812 -15.425781 29.023438 -15.53125 28.765625 -15.65625 C 28.503906 -15.78125 28.222656 -15.921875 27.921875 -16.078125 C 28.203125 -13.566406 28.316406 -11.109375 28.265625 -8.703125 C 28.222656 -6.304688 27.828125 -4.066406 27.078125 -1.984375 C 26.335938 0.0976562 25.015625 1.898438 23.109375 3.421875 C 22.523438 3.878906 21.765625 4.335938 20.828125 4.796875 C 19.898438 5.265625 18.738281 5.507812 17.34375 5.53125 C 15.945312 5.5625 14.179688 5.179688 12.046875 4.390625 C 10.722656 3.898438 9.503906 3.28125 8.390625 2.53125 C 7.285156 1.789062 6.332031 0.789062 5.53125 -0.46875 Z M 5.53125 -0.46875 "/></g></g></g><g fill="#8fccea" fill-opacity="1"><g transform="translate(221.196529, 211.97108)"><g><path d="M 6.890625 0.25 C 5.242188 0.1875 3.992188 -0.195312 3.140625 -0.90625 C 2.285156 -1.625 1.71875 -2.507812 1.4375 -3.5625 C 1.164062 -4.625 1.0625 -5.707031 1.125 -6.8125 C 1.195312 -7.914062 1.332031 -8.859375 1.53125 -9.640625 C 2.269531 -12.785156 3.390625 -15.863281 4.890625 -18.875 C 6.390625 -21.882812 7.695312 -24.875 8.8125 -27.84375 C 9.695312 -30.257812 10.503906 -32.625 11.234375 -34.9375 C 11.972656 -37.257812 12.75 -39.628906 13.5625 -42.046875 C 13.75 -42.660156 14.113281 -43.851562 14.65625 -45.625 C 15.207031 -47.394531 15.921875 -49.394531 16.796875 -51.625 C 17.671875 -53.863281 18.707031 -55.96875 19.90625 -57.9375 C 21.113281 -59.90625 22.5 -61.375 24.0625 -62.34375 C 25.226562 -63.09375 26.660156 -63.4375 28.359375 -63.375 C 29.609375 -63.332031 30.804688 -63.050781 31.953125 -62.53125 C 33.097656 -62.007812 33.929688 -61.253906 34.453125 -60.265625 C 36.648438 -56.679688 38.226562 -52.867188 39.1875 -48.828125 C 40.144531 -44.796875 41.210938 -40.773438 42.390625 -36.765625 C 42.992188 -34.660156 43.859375 -32.320312 44.984375 -29.75 C 46.109375 -27.1875 47.25 -24.59375 48.40625 -21.96875 C 49.5625 -19.351562 50.519531 -16.820312 51.28125 -14.375 C 52.039062 -11.9375 52.421875 -9.757812 52.421875 -7.84375 C 52.421875 -6.425781 52.222656 -4.972656 51.828125 -3.484375 C 51.441406 -1.992188 50.832031 -0.753906 50 0.234375 C 49.175781 1.234375 48.054688 1.707031 46.640625 1.65625 L 34.5 1.21875 C 33.132812 1.175781 32.109375 0.492188 31.421875 -0.828125 C 30.734375 -2.160156 30.28125 -3.863281 30.0625 -5.9375 C 29.851562 -8.019531 29.789062 -10.25 29.875 -12.625 C 29.957031 -15 30.109375 -17.257812 30.328125 -19.40625 C 30.546875 -21.5625 30.753906 -23.359375 30.953125 -24.796875 C 31.148438 -26.234375 31.21875 -27.070312 31.15625 -27.3125 C 31.0625 -27.757812 30.648438 -28.109375 29.921875 -28.359375 C 29.191406 -28.617188 28.34375 -28.765625 27.375 -28.796875 C 26.414062 -28.835938 25.460938 -28.742188 24.515625 -28.515625 C 23.578125 -28.296875 22.957031 -27.910156 22.65625 -27.359375 C 22.59375 -27.242188 22.71875 -26.484375 23.03125 -25.078125 C 23.351562 -23.679688 23.726562 -21.894531 24.15625 -19.71875 C 24.59375 -17.550781 24.941406 -15.285156 25.203125 -12.921875 C 25.460938 -10.566406 25.507812 -8.34375 25.34375 -6.25 C 25.1875 -4.15625 24.675781 -2.457031 23.8125 -1.15625 C 22.945312 0.144531 21.609375 0.765625 19.796875 0.703125 Z M 27.828125 -53.28125 C 26.972656 -53.195312 26.226562 -52.597656 25.59375 -51.484375 C 24.957031 -50.367188 24.46875 -49.023438 24.125 -47.453125 C 23.789062 -45.878906 23.566406 -44.367188 23.453125 -42.921875 C 23.347656 -41.484375 23.367188 -40.421875 23.515625 -39.734375 C 23.671875 -39.097656 24.09375 -38.597656 24.78125 -38.234375 C 25.476562 -37.878906 26.25 -37.6875 27.09375 -37.65625 C 28.0625 -37.613281 29.003906 -37.785156 29.921875 -38.171875 C 30.847656 -38.566406 31.410156 -39.132812 31.609375 -39.875 C 31.804688 -40.539062 31.859375 -41.613281 31.765625 -43.09375 C 31.671875 -44.570312 31.453125 -46.113281 31.109375 -47.71875 C 30.773438 -49.320312 30.328125 -50.671875 29.765625 -51.765625 C 29.210938 -52.867188 28.566406 -53.375 27.828125 -53.28125 Z M 27.828125 -53.28125 "/></g></g></g><g fill="#8fccea" fill-opacity="1"><g transform="translate(278.561428, 213.05617)"><g><path d="M 14.15625 -2.90625 C 11 -2.25 8.457031 -2.097656 6.53125 -2.453125 C 4.613281 -2.816406 3.101562 -3.476562 2 -4.4375 C 0.90625 -5.40625 0.109375 -6.53125 -0.390625 -7.8125 C -0.890625 -9.101562 -1.253906 -10.332031 -1.484375 -11.5 C -1.890625 -13.4375 -2.070312 -15.519531 -2.03125 -17.75 C -2 -19.988281 -1.914062 -22.265625 -1.78125 -24.578125 C -1.644531 -26.890625 -1.644531 -29.078125 -1.78125 -31.140625 C -1.914062 -33.296875 -2.320312 -35.503906 -3 -37.765625 C -3.675781 -40.035156 -4.316406 -42.234375 -4.921875 -44.359375 C -5.140625 -45.191406 -5.492188 -46.378906 -5.984375 -47.921875 C -6.484375 -49.472656 -6.90625 -51.148438 -7.25 -52.953125 C -7.59375 -54.765625 -7.734375 -56.53125 -7.671875 -58.25 C -7.609375 -59.96875 -7.203125 -61.453125 -6.453125 -62.703125 C -5.703125 -63.953125 -4.441406 -64.757812 -2.671875 -65.125 C -1.503906 -65.363281 -0.296875 -65.378906 0.953125 -65.171875 C 2.210938 -64.972656 2.984375 -64.898438 3.265625 -64.953125 C 3.648438 -65.035156 4.082031 -65.242188 4.5625 -65.578125 C 5.050781 -65.910156 5.851562 -66.304688 6.96875 -66.765625 C 8.09375 -67.222656 9.796875 -67.679688 12.078125 -68.140625 C 14.191406 -68.578125 16.503906 -68.660156 19.015625 -68.390625 C 21.523438 -68.128906 23.941406 -67.320312 26.265625 -65.96875 C 28.585938 -64.625 30.625 -62.582031 32.375 -59.84375 C 34.125 -57.113281 35.289062 -53.492188 35.875 -48.984375 C 36.53125 -44.378906 35.867188 -40.53125 33.890625 -37.4375 C 31.921875 -34.34375 28.628906 -32.320312 24.015625 -31.375 C 22.023438 -30.96875 20.378906 -30.90625 19.078125 -31.1875 C 17.773438 -31.476562 16.773438 -31.828125 16.078125 -32.234375 C 15.390625 -32.640625 14.941406 -32.820312 14.734375 -32.78125 C 14.617188 -32.75 14.566406 -32.703125 14.578125 -32.640625 C 14.503906 -32.410156 14.9375 -31.753906 15.875 -30.671875 C 16.820312 -29.585938 17.957031 -28.226562 19.28125 -26.59375 C 20.601562 -24.957031 21.863281 -23.175781 23.0625 -21.25 C 24.269531 -19.320312 25.097656 -17.394531 25.546875 -15.46875 C 25.941406 -13.8125 25.863281 -12.144531 25.3125 -10.46875 C 24.757812 -8.789062 23.59375 -7.28125 21.8125 -5.9375 C 20.039062 -4.59375 17.488281 -3.582031 14.15625 -2.90625 Z M 13.828125 -59.578125 C 13.003906 -59.347656 12.484375 -58.707031 12.265625 -57.65625 C 12.054688 -56.601562 12.054688 -55.398438 12.265625 -54.046875 C 12.484375 -52.703125 12.898438 -51.378906 13.515625 -50.078125 C 14.128906 -48.785156 14.867188 -47.769531 15.734375 -47.03125 C 16.609375 -46.289062 17.546875 -46.019531 18.546875 -46.21875 C 18.828125 -46.28125 19.046875 -46.359375 19.203125 -46.453125 C 20.367188 -46.972656 21.097656 -47.785156 21.390625 -48.890625 C 21.691406 -49.992188 21.648438 -51.179688 21.265625 -52.453125 C 20.878906 -53.734375 20.296875 -54.960938 19.515625 -56.140625 C 18.734375 -57.316406 17.851562 -58.238281 16.875 -58.90625 C 15.894531 -59.570312 14.960938 -59.816406 14.078125 -59.640625 C 14.023438 -59.628906 13.984375 -59.617188 13.953125 -59.609375 C 13.921875 -59.597656 13.878906 -59.585938 13.828125 -59.578125 Z M 13.828125 -59.578125 "/></g></g></g><g fill="#8fccea" fill-opacity="1"><g transform="translate(326.385063, 202.129893)"><g><path d="M 7.125 -2.8125 C 5.800781 -2.289062 4.457031 -2.203125 3.09375 -2.546875 C 1.738281 -2.898438 0.46875 -3.859375 -0.71875 -5.421875 C -1.914062 -6.984375 -2.9375 -9.289062 -3.78125 -12.34375 C -4.625 -15.394531 -5.164062 -19.375 -5.40625 -24.28125 C -5.550781 -27.445312 -6.070312 -30.664062 -6.96875 -33.9375 C -7.863281 -37.207031 -8.90625 -40.375 -10.09375 -43.4375 C -11.28125 -46.507812 -12.398438 -49.34375 -13.453125 -51.9375 C -14.503906 -54.53125 -15.242188 -56.753906 -15.671875 -58.609375 C -15.898438 -59.492188 -15.773438 -60.53125 -15.296875 -61.71875 C -14.828125 -62.914062 -13.671875 -63.878906 -11.828125 -64.609375 C -10.554688 -65.109375 -9.398438 -65.195312 -8.359375 -64.875 C -7.328125 -64.550781 -6.457031 -64.039062 -5.75 -63.34375 C -5.257812 -62.875 -4.660156 -61.863281 -3.953125 -60.3125 C -3.253906 -58.757812 -2.453125 -56.914062 -1.546875 -54.78125 C -0.640625 -52.644531 0.351562 -50.390625 1.4375 -48.015625 C 2.53125 -45.640625 3.71875 -43.332031 5 -41.09375 C 6.28125 -38.863281 7.648438 -36.90625 9.109375 -35.21875 C 10.984375 -33.101562 12.785156 -30.890625 14.515625 -28.578125 C 16.242188 -26.273438 17.738281 -24.003906 19 -21.765625 C 20.257812 -19.523438 21.09375 -17.414062 21.5 -15.4375 C 21.90625 -13.46875 21.703125 -11.695312 20.890625 -10.125 C 20.085938 -8.5625 18.5 -7.3125 16.125 -6.375 Z M 7.125 -2.8125 "/></g></g></g><g transform="matrix(1, 0, 0, 1, 195, 258)"><g clip-path="url(#0a4cf70868)"><g fill="#8fccea" fill-opacity="1"><g transform="translate(2.460631, 20.693661)"><g><path d="M 5.21875 1.046875 C 4.40625 0.898438 3.703125 0.628906 3.109375 0.234375 C 2.523438 -0.160156 2.09375 -0.644531 1.8125 -1.21875 C 1.539062 -1.800781 1.460938 -2.425781 1.578125 -3.09375 L 3.28125 -2.796875 C 3.226562 -2.210938 3.375 -1.6875 3.71875 -1.21875 C 4.070312 -0.757812 4.648438 -0.457031 5.453125 -0.3125 C 6.210938 -0.175781 6.84375 -0.257812 7.34375 -0.5625 C 7.84375 -0.875 8.144531 -1.328125 8.25 -1.921875 C 8.332031 -2.390625 8.269531 -2.789062 8.0625 -3.125 C 7.863281 -3.457031 7.582031 -3.734375 7.21875 -3.953125 C 6.863281 -4.171875 6.367188 -4.425781 5.734375 -4.71875 C 4.972656 -5.070312 4.367188 -5.394531 3.921875 -5.6875 C 3.472656 -5.988281 3.113281 -6.394531 2.84375 -6.90625 C 2.582031 -7.414062 2.519531 -8.050781 2.65625 -8.8125 C 2.78125 -9.476562 3.054688 -10.035156 3.484375 -10.484375 C 3.910156 -10.941406 4.453125 -11.257812 5.109375 -11.4375 C 5.765625 -11.613281 6.492188 -11.628906 7.296875 -11.484375 C 8.441406 -11.285156 9.328125 -10.832031 9.953125 -10.125 C 10.585938 -9.425781 10.867188 -8.597656 10.796875 -7.640625 L 9.046875 -7.953125 C 9.078125 -8.410156 8.90625 -8.859375 8.53125 -9.296875 C 8.15625 -9.734375 7.613281 -10.015625 6.90625 -10.140625 C 6.238281 -10.253906 5.660156 -10.175781 5.171875 -9.90625 C 4.691406 -9.644531 4.398438 -9.203125 4.296875 -8.578125 C 4.210938 -8.140625 4.273438 -7.753906 4.484375 -7.421875 C 4.691406 -7.097656 4.960938 -6.832031 5.296875 -6.625 C 5.640625 -6.414062 6.128906 -6.15625 6.765625 -5.84375 C 7.523438 -5.488281 8.132812 -5.15625 8.59375 -4.84375 C 9.050781 -4.539062 9.414062 -4.132812 9.6875 -3.625 C 9.957031 -3.113281 10.023438 -2.472656 9.890625 -1.703125 C 9.773438 -1.097656 9.515625 -0.5625 9.109375 -0.09375 C 8.710938 0.375 8.175781 0.71875 7.5 0.9375 C 6.820312 1.15625 6.0625 1.191406 5.21875 1.046875 Z M 5.21875 1.046875 "/></g></g></g><g fill="#8fccea" fill-opacity="1"><g transform="translate(14.105697, 22.608087)"><g><path d="M 8.109375 -0.296875 L 2.796875 -5.78125 L 3 -0.109375 L 1.375 -0.046875 L 0.921875 -12.453125 L 2.546875 -12.515625 L 2.765625 -6.765625 L 7.671875 -12.703125 L 9.71875 -12.765625 L 4.328125 -6.359375 L 10.21875 -0.375 Z M 8.109375 -0.296875 "/></g></g></g><g fill="#8fccea" fill-opacity="1"><g transform="translate(26.041297, 21.989861)"><g><path d="M 4.5 -13.859375 L 6.65625 -4.921875 C 6.894531 -3.929688 6.78125 -3.066406 6.3125 -2.328125 C 5.84375 -1.585938 5.109375 -1.097656 4.109375 -0.859375 C 3.085938 -0.609375 2.195312 -0.710938 1.4375 -1.171875 C 0.6875 -1.640625 0.1875 -2.394531 -0.0625 -3.4375 L 1.5 -3.8125 C 1.65625 -3.238281 1.921875 -2.800781 2.296875 -2.5 C 2.679688 -2.195312 3.171875 -2.117188 3.765625 -2.265625 C 4.347656 -2.398438 4.738281 -2.679688 4.9375 -3.109375 C 5.144531 -3.535156 5.1875 -4.015625 5.0625 -4.546875 L 2.90625 -13.484375 Z M 4.5 -13.859375 "/></g></g></g></g></g></svg>